HIERARCHY
ROOT Hips
{
  OFFSET 0 0 0
  CHANNELS 6 Xposition Yposition Zposition Zrotation Yrotation Xrotation
  JOINT LeftThigh
  {
    OFFSET 8.409438 0 -5.917753
    CHANNELS 3 Zrotation Yrotation Xrotation
    JOINT LeftLeg
    {
      OFFSET 0 0 -42.358652
      CHANNELS 3 Zrotation Yrotation Xrotation
      JOINT LeftFoot
      {
        OFFSET 0 0 -39.357303
        CHANNELS 3 Zrotation Yrotation Xrotation
      }
    }
  }
  JOINT RightThigh
  {
    OFFSET -8.409438 0 -5.917753
    CHANNELS 3 Zrotation Yrotation Xrotation
    JOINT RightLeg
    {
      OFFSET 0 0 -42.358652
      CHANNELS 3 Zrotation Yrotation Xrotation
      JOINT RightFoot
      {
        OFFSET 0 0 -39.357303
        CHANNELS 3 Zrotation Yrotation Xrotation
      }
    }
  }
  JOINT SpineLow
  {
    OFFSET 0 0 4.719101
    CHANNELS 3 Zrotation Yrotation Xrotation
    JOINT SpineMid
    {
      OFFSET 0 0 12.899191
      CHANNELS 3 Zrotation Yrotation Xrotation
      JOINT Chest
      {
        OFFSET 0 0 12.899191
        CHANNELS 3 Zrotation Yrotation Xrotation
        JOINT LeftShoulder
        {
          OFFSET 7.550562 1.41573 9.438202
          CHANNELS 3 Zrotation Yrotation Xrotation
          JOINT LeftArm
          {
            OFFSET 9.155056 0 4.247191
            CHANNELS 3 Zrotation Yrotation Xrotation
            JOINT LeftForearm
            {
              OFFSET 0 0 25.771955
              CHANNELS 3 Zrotation Yrotation Xrotation
              JOINT LeftHand
              {
                OFFSET 0 0 25.197169
                CHANNELS 3 Zrotation Yrotation Xrotation
              }
            }
          }
        }
        JOINT RightShoulder
        {
          OFFSET -7.550562 1.41573 9.438202
          CHANNELS 3 Zrotation Yrotation Xrotation
          JOINT RightArm
          {
            OFFSET -9.155056 0 4.247191
            CHANNELS 3 Zrotation Yrotation Xrotation
            JOINT RightForearm
            {
              OFFSET 0 0 -25.771955
              CHANNELS 3 Zrotation Yrotation Xrotation
              JOINT RightHand
              {
                OFFSET 0 0 -25.197169
                CHANNELS 3 Zrotation Yrotation Xrotation
              }
            }
          }
        }
        JOINT Neck
        {
          OFFSET 0 0 15.101124
          CHANNELS 3 Zrotation Yrotation Xrotation
          JOINT Head
          {
            OFFSET 0 0 11.325843
            CHANNELS 3 Zrotation Yrotation Xrotation
            End Site
            {
              OFFSET 0 0 14.157303
            }
          }
        }
      }
    }
  }
}
MOTION
Frames: 8
Frame Time: 0.0
0.0  93.25843  0.0  23.597625  -18.532889  -117.920232  44.928613  -12.307372  -90.415657  -2.547139  12.686622  39.503956  0.462794  -9.349853  3.929565  -2.804029  11.512812  -2.694167  14.28705  12.118859  28.508578  12.281517  5.721414  2.814671  1.556427  1.384987  1.930426  4.365941  3.656847  5.368371  4.365941  3.656847  5.368371  -12.602611  28.864265  10.044767  -160.686604  62.146301  -121.945521  -25.195357  16.673694  95.353286  68.67831  -32.725372  -11.660205  4.023559  -8.261175  22.478763  109.079665  44.778518  50.894245  -5.681877  -18.893258  -121.591854  54.696342  2.025384  -6.871567  7.594869  5.624059  19.885364  5.514919  4.471443  14.834775  
0.0  93.25843  0.0  23.383006  -18.829357  -117.674762  44.875946  -15.839814  -88.55829  -0.379275  10.716841  32.560344  0.059566  -9.565461  3.236328  -1.231763  10.870485  -2.412269  13.890083  11.641126  28.520284  11.988089  5.721367  3.070425  1.619765  1.338625  1.929875  4.535065  3.525125  5.366811  4.535065  3.525125  5.366811  -12.775535  28.901962  9.920846  -160.747154  62.293677  -121.970877  -25.279963  16.369336  95.203603  68.348257  -32.782874  -11.474853  4.731836  -8.649553  22.973407  108.873512  45.502844  51.423129  -5.787126  -19.33917  -121.466502  54.725324  1.96858  -6.941132  7.565115  5.647536  19.803964  5.492483  4.487042  14.773623  
0.0  93.25843  0.0  23.252795  -19.090647  -117.67045  45.142776  -20.964816  -87.574881  4.048133  8.811541  28.833488  -0.220884  -9.189769  2.86198  -0.156444  10.338631  -2.017327  13.85128  11.034757  28.503787  11.424199  5.96719  3.358712  1.651328  1.311569  1.979346  4.621516  3.445166  5.501656  4.621516  3.445166  5.501656  -12.808489  28.764173  9.615552  -161.198276  62.180409  -122.391165  -25.274612  16.21222  95.297163  68.093299  -32.813674  -11.362365  4.87123  -8.586588  22.700209  109.320276  45.707876  51.559185  -5.937495  -19.823193  -121.297184  54.665151  2.001944  -6.876736  7.626396  5.711766  19.695261  5.537201  4.535856  14.690539  
0.0  93.25843  0.0  23.642031  -20.311646  -118.972795  47.091764  -26.392465  -87.092786  8.398303  9.128361  27.671799  -0.133646  -9.274568  3.396307  1.742681  10.37748  -0.671941  13.372302  10.552812  28.393726  11.316654  5.993073  3.557911  1.854905  1.284049  2.177269  5.185177  3.337173  6.050608  5.185177  3.337173  6.050608  -12.812172  28.425709  9.458322  -162.493542  62.145532  -122.62235  -26.022978  15.875381  94.653944  67.865269  -32.902753  -11.285302  4.865695  -8.616974  22.43111  110.010385  45.866739  51.866109  -6.178174  -20.256549  -121.116574  54.423876  2.104933  -6.760526  7.699147  5.738236  19.654951  5.591233  4.557564  14.659245  
0.0  93.25843  0.0  23.183161  -20.122539  -118.829083  46.680023  -26.58619  -87.513604  8.24598  9.060976  29.345479  0.358366  -9.218834  3.649011  -0.022729  10.4477  -1.358151  13.827249  10.603798  28.709691  11.911887  5.893782  3.570492  1.758027  1.240135  2.185084  4.916561  3.2257  6.063723  4.916561  3.2257  6.063722  -12.739823  28.114448  9.351229  -162.831399  61.355085  -123.196526  -25.826924  16.211154  94.864359  67.546924  -33.176379  -11.097469  4.933605  -8.686593  22.181699  110.469193  46.047528  52.219859  -6.083711  -20.664337  -121.24796  54.238309  2.17655  -6.781621  7.820918  5.694655  19.649791  5.684135  4.528714  14.655071  
0.0  93.25843  0.0  22.534647  -19.759527  -118.63054  46.821499  -24.509801  -88.24204  6.248627  10.427077  33.150718  1.092184  -9.23044  3.825781  -2.177084  10.519352  -2.103115  14.276678  10.623513  29.076014  12.7105  5.82566  3.516542  1.58833  1.141711  2.167966  4.442657  2.973946  6.001739  4.442658  2.973946  6.001739  -12.532929  28.258105  9.280333  -162.850099  60.714745  -123.50834  -25.592207  16.71864  94.922541  67.403215  -33.464314  -10.888808  5.16887  -8.558852  22.069679  110.478075  46.232787  52.316194  -5.980604  -20.921865  -121.303354  54.017901  2.279458  -7.180271  7.969398  5.712959  19.674468  5.794702  4.547608  14.671975  
0.0  93.25843  0.0  21.812811  -19.225291  -118.445172  46.726615  -21.188063  -87.411499  3.218755  12.378119  36.959168  2.017429  -9.409535  3.979244  -3.605626  10.367845  -2.336267  14.50111  10.475297  29.280363  13.055675  5.761785  3.546736  1.44302  1.076124  2.115646  4.037272  2.81146  5.848035  4.037272  2.811459  5.848035  -12.529474  28.516436  9.57702  -162.444193  60.583162  -123.335575  -25.453449  17.102607  94.780941  67.444362  -33.624855  -10.793286  5.167828  -8.710887  22.238886  109.7837  46.674532  51.994511  -5.381265  -21.165412  -121.604091  53.916255  2.382114  -7.598045  7.91747  5.484099  19.748985  5.762952  4.375068  14.732231  
0.0  93.25843  0.0  21.172678  -18.65094  -118.301579  46.462737  -17.707062  -86.125083  0.479254  14.106482  41.565709  2.844874  -9.594102  3.995827  -3.907046  9.921193  -1.989656  14.410004  10.255441  29.236975  12.86296  5.721837  3.670049  1.319603  1.029179  2.059232  3.693523  2.697497  5.685873  3.693523  2.697497  5.685873  -12.414003  28.950614  10.055932  -162.100456  60.971666  -122.85431  -25.53888  17.087678  94.397163  67.540995  -33.629065  -10.869738  5.135723  -8.8063  22.555868  108.764291  47.193281  51.301764  -4.732001  -21.503999  -121.86241  53.72723  2.47775  -8.031077  7.727329  5.224695  19.808811  5.628677  4.174864  14.782997  
